<svg xmlns="http://www.w3.org/2000/svg" xmlns:xlink="http://www.w3.org/1999/xlink" width="800" zoomAndPan="magnify" viewBox="0 0 600 675.000002" height="900" preserveAspectRatio="xMidYMid meet" version="1.0"><defs><filter x="0%" y="0%" width="100%" height="100%" id="3f0248658f"><feColorMatrix values="0 0 0 0 1 0 0 0 0 1 0 0 0 0 1 0 0 0 1 0" color-interpolation-filters="sRGB"/></filter><clipPath id="c99b527f3f"><path d="M 357 164 L 592.558594 164 L 592.558594 518.179688 L 357 518.179688 Z M 357 164 " clip-rule="nonzero"/></clipPath><clipPath id="ce4b6784fb"><path d="M 156 50.125 L 560 50.125 L 560 244 L 156 244 Z M 156 50.125 " clip-rule="nonzero"/></clipPath><clipPath id="5490d8ec79"><path d="M 124.503906 165 L 358 165 L 358 518.179688 L 124.503906 518.179688 Z M 124.503906 165 " clip-rule="nonzero"/></clipPath><clipPath id="7ad6416f83"><path d="M 155 323 L 358 323 L 358 518.179688 L 155 518.179688 Z M 155 323 " clip-rule="nonzero"/></clipPath><mask id="e70a09c91e"><g filter="url(#3f0248658f)"><rect x="-60" width="720" fill="#000000" y="-67.5" height="810.000002" fill-opacity="0.498"/></g></mask><clipPath id="eb4b596de3"><path d="M 1 1 L 202.753906 1 L 202.753906 195.179688 L 1 195.179688 Z M 1 1 " clip-rule="nonzero"/></clipPath><clipPath id="786b8a418f"><rect x="0" width="203" y="0" height="196"/></clipPath><clipPath id="2680158107"><path d="M 426 164 L 592.558594 164 L 592.558594 398 L 426 398 Z M 426 164 " clip-rule="nonzero"/></clipPath><mask id="044d2f9809"><g filter="url(#3f0248658f)"><rect x="-60" width="720" fill="#000000" y="-67.5" height="810.000002" fill-opacity="0.498"/></g></mask><clipPath id="1b5636094a"><path d="M 1 0.15625 L 166.558594 0.15625 L 166.558594 233.570312 L 1 233.570312 Z M 1 0.15625 " clip-rule="nonzero"/></clipPath><clipPath id="db743f0767"><rect x="0" width="167" y="0" height="234"/></clipPath><clipPath id="e689c45000"><path d="M 156 50.125 L 360 50.125 L 360 244 L 156 244 Z M 156 50.125 " clip-rule="nonzero"/></clipPath><mask id="fd45a3a03d"><g filter="url(#3f0248658f)"><rect x="-60" width="720" fill="#000000" y="-67.5" height="810.000002" fill-opacity="0.498"/></g></mask><clipPath id="fd9263c25c"><path d="M 0.214844 0.125 L 203 0.125 L 203 193.957031 L 0.214844 193.957031 Z M 0.214844 0.125 " clip-rule="nonzero"/></clipPath><clipPath id="d3f789aa80"><rect x="0" width="204" y="0" height="194"/></clipPath></defs><g clip-path="url(#c99b527f3f)"><path fill="#3c397f" d="M 559.832031 164.773438 L 427.5 242.753906 C 428.585938 244.554688 429.605469 246.394531 430.550781 248.285156 C 435.941406 259.085938 438.988281 271.261719 438.988281 284.152344 C 438.988281 328.589844 402.96875 364.609375 358.535156 364.609375 C 358.425781 364.609375 358.320312 364.601562 358.210938 364.601562 C 357.988281 364.601562 357.765625 364.585938 357.542969 364.582031 L 357.542969 518.167969 C 357.765625 518.167969 357.988281 518.175781 358.210938 518.175781 C 358.316406 518.175781 358.425781 518.179688 358.535156 518.179688 C 487.78125 518.179688 592.558594 413.40625 592.558594 284.152344 C 592.558594 246.804688 583.792969 211.511719 568.238281 180.1875 C 565.625 174.933594 562.816406 169.792969 559.832031 164.773438 Z M 559.832031 164.773438 " fill-opacity="1" fill-rule="nonzero"/></g><g clip-path="url(#ce4b6784fb)"><path fill="#f290c6" d="M 358.53125 203.695312 C 387.820312 203.695312 413.429688 219.359375 427.5 242.753906 L 559.832031 164.773438 C 519.042969 96.132812 444.171875 50.125 358.53125 50.125 C 272.652344 50.125 197.59375 96.386719 156.882812 165.34375 L 289.21875 243.328125 C 303.214844 219.617188 329.003906 203.695312 358.53125 203.695312 Z M 358.53125 203.695312 " fill-opacity="1" fill-rule="nonzero"/></g><g clip-path="url(#5490d8ec79)"><path fill="#ec6433" d="M 278.074219 284.152344 C 278.074219 270.601562 281.4375 257.847656 287.355469 246.644531 C 287.945312 245.523438 288.574219 244.417969 289.21875 243.328125 L 156.882812 165.34375 C 154.921875 168.667969 153.039062 172.039062 151.238281 175.464844 C 134.171875 207.941406 124.503906 244.914062 124.503906 284.152344 C 124.503906 413.070312 228.746094 517.632812 357.539062 518.167969 L 357.539062 364.582031 C 313.5625 364.050781 278.074219 328.257812 278.074219 284.152344 Z M 278.074219 284.152344 " fill-opacity="1" fill-rule="nonzero"/></g><g clip-path="url(#7ad6416f83)"><g mask="url(#e70a09c91e)"><g transform="matrix(1, 0, 0, 1, 155, 323)"><g clip-path="url(#786b8a418f)"><g clip-path="url(#eb4b596de3)"><path fill="#3c397f" d="M 202.542969 41.613281 C 197.1875 41.542969 191.867188 40.933594 186.660156 39.8125 C 186.269531 39.730469 185.886719 39.628906 185.5 39.542969 C 184.648438 39.34375 183.796875 39.148438 182.949219 38.925781 C 182.371094 38.773438 181.800781 38.597656 181.226562 38.433594 C 180.566406 38.246094 179.902344 38.0625 179.25 37.851562 C 178.632812 37.660156 178.027344 37.441406 177.421875 37.234375 C 176.796875 37.023438 176.171875 36.816406 175.554688 36.585938 C 175.003906 36.378906 174.460938 36.160156 173.914062 35.941406 C 173.234375 35.671875 172.550781 35.40625 171.878906 35.121094 C 171.453125 34.9375 171.039062 34.742188 170.617188 34.554688 C 169.820312 34.195312 169.023438 33.835938 168.238281 33.453125 C 167.984375 33.328125 167.738281 33.199219 167.488281 33.074219 C 166.535156 32.597656 165.59375 32.113281 164.660156 31.597656 C 164.609375 31.570312 164.558594 31.539062 164.503906 31.507812 C 154.089844 25.746094 144.851562 17.601562 137.660156 7.316406 C 137.257812 6.746094 136.851562 6.179688 136.464844 5.597656 C 136.273438 5.304688 136.09375 5.007812 135.902344 4.714844 C 135.335938 3.835938 134.78125 2.953125 134.25 2.054688 C 134.222656 2.007812 134.191406 1.964844 134.164062 1.917969 C 134.109375 1.824219 134.0625 1.730469 134.007812 1.636719 C 133.96875 1.578125 133.941406 1.515625 133.90625 1.453125 C 133.832031 1.320312 133.757812 1.1875 133.679688 1.054688 L 1.273438 78.867188 C 1.386719 79.058594 1.488281 79.253906 1.601562 79.445312 C 1.660156 79.539062 1.707031 79.632812 1.765625 79.726562 C 4.6875 84.699219 7.773438 89.519531 10.996094 94.195312 C 11.265625 94.585938 11.53125 94.980469 11.804688 95.367188 C 12.417969 96.246094 13.042969 97.109375 13.667969 97.976562 C 14.316406 98.875 14.960938 99.773438 15.621094 100.664062 C 15.785156 100.886719 15.953125 101.105469 16.121094 101.328125 C 35.070312 126.621094 59.015625 147.953125 86.5 163.855469 C 86.503906 163.855469 86.503906 163.855469 86.507812 163.855469 C 87.703125 164.546875 88.914062 165.21875 90.121094 165.890625 C 90.726562 166.226562 91.328125 166.566406 91.9375 166.894531 C 92.554688 167.230469 93.179688 167.554688 93.800781 167.886719 C 95.011719 168.527344 96.21875 169.167969 97.441406 169.785156 C 97.460938 169.800781 97.488281 169.808594 97.511719 169.820312 C 120.863281 181.660156 146.042969 189.496094 171.902344 193.042969 C 172.039062 193.0625 172.175781 193.082031 172.3125 193.101562 C 173.179688 193.21875 174.054688 193.3125 174.925781 193.421875 C 176.15625 193.574219 177.382812 193.726562 178.621094 193.859375 C 178.726562 193.871094 178.832031 193.878906 178.9375 193.890625 C 186.699219 194.703125 194.574219 195.136719 202.542969 195.167969 Z M 202.542969 41.613281 " fill-opacity="1" fill-rule="nonzero"/></g></g></g></g></g><g clip-path="url(#2680158107)"><g mask="url(#044d2f9809)"><g transform="matrix(1, 0, 0, 1, 426, 164)"><g clip-path="url(#db743f0767)"><g clip-path="url(#1b5636094a)"><path fill="#f290c6" d="M 133.816406 0.78125 L 1.507812 78.753906 C 1.636719 78.964844 1.769531 79.175781 1.894531 79.390625 C 3.039062 81.335938 4.082031 83.316406 5.042969 85.3125 C 5.214844 85.664062 5.382812 86.011719 5.550781 86.367188 C 5.753906 86.800781 5.941406 87.242188 6.136719 87.679688 C 6.273438 87.988281 6.414062 88.292969 6.546875 88.605469 C 6.738281 89.0625 6.925781 89.519531 7.113281 89.976562 C 7.230469 90.265625 7.347656 90.554688 7.460938 90.84375 C 7.648438 91.324219 7.832031 91.808594 8.011719 92.292969 C 8.109375 92.550781 8.199219 92.808594 8.292969 93.066406 C 8.476562 93.582031 8.660156 94.101562 8.835938 94.625 C 8.902344 94.824219 8.964844 95.023438 9.03125 95.222656 C 9.21875 95.804688 9.40625 96.386719 9.585938 96.972656 C 9.59375 96.996094 9.597656 97.023438 9.605469 97.046875 C 10.476562 99.9375 11.171875 102.859375 11.699219 105.789062 C 11.71875 105.875 11.734375 105.964844 11.75 106.050781 C 11.863281 106.707031 11.96875 107.359375 12.070312 108.015625 C 12.089844 108.160156 12.117188 108.308594 12.136719 108.453125 C 12.230469 109.082031 12.3125 109.707031 12.386719 110.335938 C 12.410156 110.515625 12.433594 110.699219 12.453125 110.878906 C 12.523438 111.484375 12.585938 112.089844 12.640625 112.699219 C 12.660156 112.910156 12.675781 113.125 12.695312 113.335938 C 12.746094 113.914062 12.789062 114.492188 12.824219 115.070312 C 12.84375 115.335938 12.855469 115.601562 12.871094 115.871094 C 12.898438 116.394531 12.921875 116.917969 12.941406 117.445312 C 12.953125 117.8125 12.957031 118.183594 12.964844 118.554688 C 12.972656 118.972656 12.980469 119.386719 12.984375 119.804688 C 12.984375 119.921875 12.988281 120.035156 12.988281 120.152344 C 12.988281 120.324219 12.976562 120.496094 12.976562 120.667969 C 12.96875 121.605469 12.945312 122.539062 12.902344 123.46875 C 12.882812 124.054688 12.847656 124.632812 12.8125 125.214844 C 12.765625 125.933594 12.714844 126.652344 12.648438 127.371094 C 12.582031 128.136719 12.5 128.902344 12.40625 129.664062 C 12.40625 129.683594 12.402344 129.707031 12.398438 129.730469 C 11.167969 140.105469 7.980469 149.878906 3.1875 158.652344 L 137.441406 233.21875 C 152.953125 205.046875 162.492188 173.96875 165.527344 142.070312 C 165.605469 141.238281 165.679688 140.40625 165.746094 139.570312 C 165.796875 138.976562 165.851562 138.382812 165.898438 137.785156 C 166.332031 131.964844 166.558594 126.085938 166.558594 120.152344 C 166.558594 96.929688 163.164062 74.5 156.863281 53.328125 C 156.804688 53.132812 156.746094 52.9375 156.6875 52.742188 C 156.132812 50.898438 155.550781 49.0625 154.953125 47.238281 C 154.792969 46.753906 154.628906 46.269531 154.46875 45.785156 C 153.972656 44.308594 153.464844 42.84375 152.9375 41.378906 C 152.625 40.507812 152.304688 39.636719 151.980469 38.765625 C 151.640625 37.847656 151.292969 36.929688 150.941406 36.015625 C 150.257812 34.25 149.554688 32.488281 148.824219 30.734375 C 148.691406 30.414062 148.5625 30.09375 148.429688 29.773438 C 144.410156 20.199219 139.703125 10.78125 134.296875 1.582031 C 134.140625 1.3125 133.976562 1.050781 133.816406 0.78125 Z M 133.816406 0.78125 " fill-opacity="1" fill-rule="nonzero"/></g></g></g></g></g><g clip-path="url(#e689c45000)"><g mask="url(#fd45a3a03d)"><g transform="matrix(1, 0, 0, 1, 156, 50)"><g clip-path="url(#d3f789aa80)"><g clip-path="url(#fd9263c25c)"><path fill="#ec6433" d="M 0.882812 115.34375 L 133.210938 193.324219 C 138.289062 184.683594 145.042969 176.90625 153.324219 170.515625 C 153.449219 170.421875 153.574219 170.324219 153.695312 170.230469 C 154.304688 169.765625 154.917969 169.300781 155.546875 168.851562 C 156.308594 168.300781 157.082031 167.769531 157.863281 167.246094 C 158.207031 167.015625 158.554688 166.792969 158.90625 166.566406 C 159.765625 166.011719 160.632812 165.46875 161.511719 164.945312 C 161.597656 164.894531 161.679688 164.839844 161.765625 164.789062 C 161.800781 164.765625 161.835938 164.75 161.871094 164.726562 C 162.46875 164.375 163.070312 164.039062 163.679688 163.703125 C 163.785156 163.644531 163.894531 163.582031 164.003906 163.523438 C 164.722656 163.125 165.453125 162.742188 166.1875 162.371094 C 166.191406 162.371094 166.191406 162.367188 166.191406 162.367188 C 167.65625 161.625 169.140625 160.929688 170.648438 160.277344 C 170.671875 160.269531 170.695312 160.257812 170.71875 160.246094 C 171.425781 159.941406 172.136719 159.648438 172.855469 159.363281 C 172.914062 159.339844 172.976562 159.3125 173.039062 159.289062 C 173.71875 159.023438 174.402344 158.765625 175.085938 158.515625 C 175.1875 158.476562 175.292969 158.441406 175.394531 158.402344 C 176.046875 158.171875 176.703125 157.945312 177.363281 157.726562 C 177.5 157.683594 177.636719 157.636719 177.777344 157.589844 C 178.40625 157.386719 179.042969 157.191406 179.679688 157.003906 C 179.847656 156.953125 180.011719 156.90625 180.179688 156.855469 C 180.796875 156.679688 181.414062 156.507812 182.035156 156.34375 C 182.222656 156.292969 182.414062 156.246094 182.605469 156.199219 C 183.207031 156.042969 183.816406 155.894531 184.429688 155.753906 C 184.628906 155.707031 184.828125 155.664062 185.03125 155.621094 C 185.632812 155.484375 186.242188 155.351562 186.851562 155.234375 C 187.042969 155.195312 187.234375 155.160156 187.429688 155.125 C 188.054688 155.007812 188.675781 154.890625 189.308594 154.785156 C 189.367188 154.773438 189.429688 154.765625 189.492188 154.757812 C 190.886719 154.53125 192.292969 154.339844 193.714844 154.183594 C 193.835938 154.171875 193.957031 154.152344 194.078125 154.140625 C 194.59375 154.085938 195.109375 154.046875 195.628906 154 C 195.957031 153.972656 196.285156 153.941406 196.613281 153.917969 C 197.109375 153.882812 197.609375 153.855469 198.105469 153.828125 C 198.339844 153.816406 198.570312 153.796875 198.804688 153.789062 C 198.917969 153.78125 199.03125 153.78125 199.148438 153.777344 C 199.636719 153.757812 200.125 153.742188 200.613281 153.730469 C 200.6875 153.730469 200.761719 153.726562 200.835938 153.726562 C 201.402344 153.714844 201.960938 153.699219 202.527344 153.699219 C 202.554688 153.699219 202.578125 153.699219 202.605469 153.699219 L 202.792969 0.128906 C 202.703125 0.128906 202.617188 0.128906 202.527344 0.128906 C 186.433594 0.128906 170.714844 1.753906 155.53125 4.847656 C 155.519531 4.851562 155.507812 4.855469 155.496094 4.855469 C 154.375 5.085938 153.261719 5.324219 152.148438 5.566406 C 151.847656 5.632812 151.550781 5.699219 151.25 5.765625 C 150.460938 5.945312 149.671875 6.128906 148.882812 6.3125 C 148.335938 6.441406 147.792969 6.570312 147.246094 6.703125 C 146.765625 6.820312 146.289062 6.9375 145.808594 7.058594 C 144.996094 7.261719 144.1875 7.464844 143.378906 7.675781 C 143.28125 7.699219 143.183594 7.726562 143.085938 7.75 C 122.8125 13.082031 102.921875 21.242188 83.957031 32.386719 C 78.777344 35.433594 73.757812 38.644531 68.902344 42.015625 C 68.691406 42.164062 68.484375 42.3125 68.273438 42.460938 C 67.273438 43.160156 66.285156 43.871094 65.296875 44.585938 C 39.277344 63.457031 17.289062 87.554688 0.882812 115.34375 Z M 0.882812 115.34375 " fill-opacity="1" fill-rule="nonzero"/></g></g></g></g></g><path fill="#f1d3d5" d="M 422.394531 362.324219 C 418.21875 351.570312 410.503906 341.808594 399.796875 336.996094 C 397.691406 336.050781 395.519531 335.3125 393.3125 334.765625 C 393.84375 334.203125 394.378906 333.640625 394.90625 333.082031 C 405.464844 321.773438 415.121094 308.511719 418.609375 293.167969 C 421.707031 279.535156 420.488281 263.972656 412.425781 252.179688 C 403.640625 239.335938 388.277344 233.335938 373.003906 234.375 C 368.316406 234.691406 363.792969 235.609375 359.4375 237.011719 C 361.230469 233.152344 362.734375 229.1875 363.957031 225.234375 C 369.621094 206.972656 370.132812 186.566406 362.265625 168.875 C 347.742188 136.222656 303.984375 125.476562 273.648438 142.089844 C 266.609375 145.949219 259.894531 151.816406 255.011719 158.78125 C 254.386719 157.578125 253.738281 156.382812 253.054688 155.21875 C 245.382812 142.207031 233.796875 131.664062 219.8125 125.867188 C 191.808594 114.25 156.171875 124.859375 142.511719 152.777344 C 138.175781 161.640625 136.117188 171.417969 136.59375 181.078125 C 127.632812 172.039062 116.992188 164.75 104.914062 160.332031 C 87.324219 153.910156 66.945312 154.894531 50.421875 163.933594 C 34.5625 172.609375 24.953125 188.253906 22.839844 206 C 20.832031 222.863281 26.003906 240.4375 36.707031 253.574219 C 41.433594 259.382812 47.164062 264.074219 53.457031 267.9375 C 43.457031 270.820312 34.183594 276.414062 27.257812 284.253906 C 7.300781 306.839844 7.964844 342.113281 22.421875 367.339844 C 26.632812 374.6875 32.558594 381.765625 40.4375 385.304688 L 40.492188 385.332031 C 34.753906 390.160156 30.167969 396.453125 27.253906 403.445312 C 20.328125 420.078125 22.03125 439.976562 28.109375 456.617188 C 31.105469 464.824219 35.457031 472.6875 41.820312 478.769531 C 47.347656 484.058594 54.132812 487.929688 61.414062 490.242188 C 75.9375 494.863281 92.644531 492.882812 105.011719 483.722656 C 105.277344 483.527344 105.527344 483.308594 105.789062 483.105469 C 109.96875 487.722656 115.503906 491.101562 121.6875 492.753906 C 130.585938 495.125 140.144531 493.820312 147.765625 488.914062 C 163.035156 510.066406 188.855469 517.636719 213.871094 519.511719 C 242.292969 521.644531 271.332031 518.683594 298.902344 511.5625 C 311.957031 508.195312 324.875 503.929688 336.984375 497.949219 C 348.199219 492.410156 359.550781 485.101562 367.386719 475.183594 C 373.332031 467.648438 376.753906 458.589844 375.511719 449.441406 C 386.222656 446.519531 395.894531 440.015625 403.574219 432.121094 C 420.785156 414.433594 431.765625 386.421875 422.394531 362.324219 " fill-opacity="1" fill-rule="nonzero"/><path fill="#f4b8c9" d="M 358.625 399.929688 C 358.636719 402.703125 358.625 405.46875 358.546875 408.242188 C 357.925781 433.277344 355.859375 458.890625 349.726562 483.300781 C 347.976562 490.308594 345.882812 497.226562 343.386719 504 C 326.8125 548.957031 297.675781 600.273438 248.597656 615.183594 C 241.960938 617.203125 235.113281 618.582031 228.238281 619.519531 C 193.371094 624.238281 155.902344 621.195312 126.378906 602.023438 C 96.859375 582.839844 72.027344 554.4375 59.0625 521.507812 C 53.332031 506.953125 53.019531 490.722656 52.78125 475.28125 C 52.753906 472.699219 52.738281 470.097656 52.753906 467.488281 C 52.84375 450.589844 53.910156 433.589844 54.921875 416.824219 C 55.5 407.191406 56.050781 397.625 56.375 388.230469 C 56.496094 384.753906 56.6875 381.277344 56.941406 377.804688 C 59.433594 343.726562 68.480469 309.574219 88.570312 281.585938 C 89.0625 280.890625 89.582031 280.195312 90.085938 279.511719 C 90.902344 278.382812 91.75 277.300781 92.609375 276.210938 C 94.527344 273.839844 96.5 271.550781 98.550781 269.371094 C 144.867188 219.894531 228.460938 218.425781 284 250.480469 C 304.226562 262.152344 319.714844 278.796875 331.226562 298.113281 C 345.820312 322.585938 354.480469 351.300781 357.523438 379.585938 C 358.238281 386.339844 358.578125 393.125 358.625 399.929688 " fill-opacity="1" fill-rule="nonzero"/><path fill="#f4b1c7" d="M 337.9375 510.261719 C 320.683594 538.75 297.074219 564.0625 268.40625 581.273438 C 254.296875 589.746094 238.902344 596.179688 222.800781 599.679688 C 205.484375 603.445312 187.589844 603.617188 170.125 600.761719 C 134.355469 594.90625 99.820312 576.355469 76.03125 548.894531 C 72.144531 544.40625 68.507812 539.683594 65.082031 534.800781 C 78.960938 562.058594 100.917969 585.484375 126.390625 602.035156 C 155.902344 621.203125 193.367188 624.246094 228.238281 619.515625 C 235.125 618.582031 241.957031 617.203125 248.609375 615.183594 C 297.683594 600.273438 326.824219 548.96875 343.390625 504 C 344.496094 500.996094 345.503906 497.953125 346.460938 494.894531 C 343.800781 500.113281 340.972656 505.246094 337.9375 510.261719 " fill-opacity="1" fill-rule="nonzero"/><path fill="#ffffff" d="M 258.453125 369.992188 C 258.445312 369.691406 258.4375 369.386719 258.441406 369.082031 C 258.40625 368.558594 258.398438 368.542969 258.453125 369.992188 " fill-opacity="1" fill-rule="nonzero"/><path fill="#fffeee" d="M 258.699219 371.910156 C 258.703125 373.589844 259.464844 375.25 260.96875 376.070312 C 263.890625 377.660156 268.589844 377.277344 271.878906 378.125 C 275.847656 379.148438 279.917969 380.386719 283.589844 382.234375 C 286.332031 383.75 288.910156 385.695312 291.015625 388.015625 C 291.933594 389.027344 292.949219 389.96875 293.789062 391.042969 C 294.460938 391.910156 295.140625 392.953125 296.125 393.449219 C 296.832031 393.816406 297.554688 392.191406 297.738281 391.800781 C 298.195312 390.820312 298.410156 389.757812 298.527344 388.683594 C 298.550781 387.984375 298.621094 386.382812 298.605469 386.128906 C 298.582031 385.675781 298.546875 385.21875 298.496094 384.765625 C 298.351562 383.441406 298.179688 382.136719 297.78125 380.871094 C 297.035156 378.511719 296.171875 376.28125 294.667969 374.296875 C 292.253906 371.113281 289.09375 368.972656 285.496094 367.292969 C 280.414062 364.921875 274.136719 363.949219 268.542969 364.359375 C 264.4375 364.65625 258.679688 366.964844 258.699219 371.910156 " fill-opacity="1" fill-rule="nonzero"/><path fill="#f8a1c1" d="M 71.644531 420.613281 C 78.851562 413.160156 90.625 411.738281 100.433594 412.972656 C 109.441406 414.105469 125.984375 419.242188 125.253906 430.992188 C 124.59375 441.578125 110.5625 446.347656 101.875 447.738281 C 93.796875 449.027344 84.46875 448.453125 77.246094 444.296875 C 69.378906 439.773438 64.417969 428.265625 71.519531 420.746094 L 71.644531 420.613281 " fill-opacity="1" fill-rule="nonzero"/><path fill="#f8a1c1" d="M 265.21875 417.972656 C 277.828125 413.96875 298.578125 412.789062 304.429688 428.066406 C 306.703125 433.996094 304.90625 441.257812 300.125 445.441406 C 294.644531 450.238281 285.847656 451.570312 278.785156 451.523438 C 269.550781 451.46875 256.054688 448.640625 250.773438 439.917969 C 244.722656 429.917969 256.753906 420.664062 265.21875 417.972656 " fill-opacity="1" fill-rule="nonzero"/><path fill="#ffffff" d="M 119.597656 371.175781 C 119.589844 370.871094 119.578125 370.570312 119.558594 370.269531 C 119.5625 369.742188 119.570312 369.71875 119.597656 371.175781 " fill-opacity="1" fill-rule="nonzero"/><path fill="#fffeee" d="M 119.796875 374.054688 C 119.820312 374.3125 119.828125 374.585938 119.832031 374.863281 C 119.839844 375.9375 119.460938 377.070312 118.597656 377.710938 C 118 378.15625 117.246094 378.324219 116.515625 378.476562 C 112.65625 379.285156 108.726562 379.859375 104.929688 380.9375 C 98.597656 382.722656 92.191406 385.597656 87.761719 390.617188 C 86.859375 391.640625 85.855469 392.601562 85.035156 393.6875 C 84.375 394.5625 83.707031 395.613281 82.730469 396.125 C 82.03125 396.5 81.285156 394.886719 81.097656 394.5 C 80.625 393.527344 80.390625 392.46875 80.261719 391.394531 C 80.230469 390.695312 80.136719 389.09375 80.144531 388.839844 C 80.164062 388.382812 80.195312 387.929688 80.238281 387.472656 C 80.363281 386.148438 80.519531 384.84375 80.898438 383.570312 C 81.609375 381.203125 82.441406 378.960938 83.914062 376.957031 C 86.285156 373.734375 89.414062 371.546875 92.988281 369.816406 C 99.769531 366.535156 118.882812 362.214844 119.796875 374.054688 " fill-opacity="1" fill-rule="nonzero"/><path fill="#f4b8c9" d="M 393.597656 423.796875 C 393.222656 420.785156 392.851562 417.96875 391.332031 414.921875 C 386.703125 405.628906 377.949219 397.929688 367.171875 397.496094 C 356.027344 397.050781 345.890625 403.25 338.488281 411.128906 C 334.800781 415.046875 331.667969 419.542969 329.359375 424.410156 C 328.199219 426.863281 327.304688 429.417969 326.613281 432.039062 C 326.285156 433.285156 326.019531 434.546875 325.832031 435.816406 C 325.753906 436.351562 325.683594 436.890625 325.628906 437.429688 C 325.59375 437.734375 325.558594 438.351562 325.65625 438.152344 C 325.304688 439.269531 324.683594 440.386719 324.230469 441.449219 C 323.167969 443.9375 322.105469 446.425781 321.046875 448.914062 C 315.25 462.503906 303.804688 474.78125 304.261719 490.433594 C 304.28125 491.105469 304.335938 491.8125 304.683594 492.386719 C 305.03125 492.945312 305.613281 493.3125 306.183594 493.632812 C 309.503906 495.53125 313.160156 496.832031 316.929688 497.464844 C 319.457031 497.890625 322.050781 498.023438 324.488281 498.8125 C 332.644531 501.445312 333.597656 514.214844 344.265625 512.734375 C 347.097656 512.339844 349.605469 510.722656 351.878906 508.988281 C 354.671875 506.859375 357.292969 504.472656 359.421875 501.675781 C 363.476562 496.351562 365.578125 489.78125 369.324219 484.230469 C 373.296875 478.359375 378.949219 473.84375 383.453125 468.371094 C 389.601562 460.90625 393.390625 451.601562 394.496094 442.011719 C 395.054688 437.210938 394.933594 432.347656 394.121094 427.585938 C 393.894531 426.273438 393.746094 425.019531 393.597656 423.796875 " fill-opacity="1" fill-rule="nonzero"/><path fill="#f48baf" d="M 371.90625 460.46875 C 368.992188 455.3125 365.285156 450.726562 360.800781 446.855469 C 362.285156 441.75 364.386719 436.8125 367.078125 432.179688 C 367.703125 431.101562 366.929688 429.601562 365.878906 429.140625 C 364.625 428.597656 363.472656 429.257812 362.84375 430.339844 C 355.746094 442.558594 352.636719 456.898438 353.84375 470.96875 C 354.101562 473.929688 358.683594 473.378906 358.425781 470.421875 C 357.894531 464.207031 358.292969 457.972656 359.542969 451.917969 C 359.851562 452.207031 360.164062 452.492188 360.460938 452.792969 L 360.695312 453.023438 L 361.007812 453.351562 C 361.234375 453.589844 361.460938 453.832031 361.683594 454.078125 C 362.15625 454.597656 362.617188 455.132812 363.070312 455.675781 C 363.945312 456.726562 364.773438 457.816406 365.554688 458.9375 C 365.933594 459.484375 366.300781 460.035156 366.652344 460.597656 C 366.851562 460.910156 367.046875 461.230469 367.242188 461.550781 C 367.324219 461.691406 367.410156 461.835938 367.496094 461.976562 C 367.519531 462.019531 367.769531 462.453125 367.628906 462.214844 C 368.222656 463.257812 369.410156 464.046875 370.640625 463.476562 C 371.65625 463.011719 372.539062 461.597656 371.90625 460.46875 " fill-opacity="1" fill-rule="nonzero"/><path fill="#822944" d="M 173.429688 453.152344 C 173.496094 457.777344 174.613281 462.410156 177.742188 465.949219 C 180.609375 469.191406 184.804688 470.59375 189.046875 469.964844 C 198.054688 468.628906 202.601562 459.601562 202.484375 451.230469 C 202.441406 448.363281 197.984375 448.355469 198.027344 451.230469 C 198.117188 457.402344 195.277344 464.304688 188.570312 465.550781 C 185.617188 466.097656 182.859375 465.03125 180.890625 462.800781 C 178.578125 460.175781 177.933594 456.539062 177.886719 453.152344 C 177.847656 450.289062 173.390625 450.28125 173.429688 453.152344 " fill-opacity="1" fill-rule="nonzero"/><path fill="#f3a4bf" d="M 154.695312 447.058594 C 152.71875 449.792969 151.273438 452.882812 150.542969 456.183594 C 149.683594 460.082031 149.800781 463.960938 148.339844 467.742188 C 146.980469 471.265625 145.539062 474.6875 144.613281 478.367188 C 143.703125 481.996094 143.171875 485.703125 142.953125 489.433594 C 142.871094 490.863281 145.097656 490.859375 145.179688 489.433594 C 145.402344 485.667969 145.96875 481.945312 146.933594 478.296875 C 147.839844 474.859375 149.210938 471.640625 150.488281 468.332031 C 151.84375 464.824219 151.859375 461.355469 152.503906 457.707031 C 153.117188 454.234375 154.558594 451.039062 156.621094 448.183594 C 157.460938 447.023438 155.527344 445.90625 154.695312 447.058594 " fill-opacity="1" fill-rule="nonzero"/><path fill="#f3a4bf" d="M 221.96875 450.71875 C 223.378906 456.9375 224.789062 463.160156 226.199219 469.378906 C 227.621094 475.644531 229.085938 481.933594 228.703125 488.40625 C 228.617188 489.835938 230.847656 489.832031 230.929688 488.40625 C 231.308594 481.988281 229.917969 475.707031 228.507812 469.492188 C 227.042969 463.035156 225.582031 456.582031 224.113281 450.125 C 223.800781 448.730469 221.652344 449.324219 221.96875 450.71875 " fill-opacity="1" fill-rule="nonzero"/><path fill="#f3a4bf" d="M 286.609375 407.085938 C 285.140625 407.570312 283.675781 408.054688 282.207031 408.535156 C 281.652344 408.714844 281.234375 409.3125 281.429688 409.902344 C 281.605469 410.457031 282.207031 410.878906 282.796875 410.683594 C 284.265625 410.199219 285.734375 409.71875 287.199219 409.234375 C 287.753906 409.054688 288.167969 408.457031 287.976562 407.867188 C 287.800781 407.3125 287.199219 406.890625 286.609375 407.085938 " fill-opacity="1" fill-rule="nonzero"/><path fill="#f3a4bf" d="M 289.101562 398.355469 C 288.640625 397.890625 288.175781 397.425781 287.707031 396.957031 C 287.507812 396.757812 287.207031 396.632812 286.921875 396.632812 C 286.769531 396.628906 286.621094 396.660156 286.492188 396.726562 C 286.351562 396.773438 286.234375 396.847656 286.132812 396.957031 C 285.9375 397.171875 285.792969 397.449219 285.808594 397.746094 C 285.820312 398.042969 285.921875 398.320312 286.132812 398.53125 C 286.601562 399 287.0625 399.464844 287.527344 399.929688 C 287.730469 400.128906 288.03125 400.253906 288.316406 400.253906 C 288.46875 400.261719 288.613281 400.230469 288.746094 400.160156 C 288.882812 400.117188 289.003906 400.039062 289.101562 399.929688 C 289.300781 399.71875 289.441406 399.4375 289.429688 399.144531 C 289.417969 398.847656 289.316406 398.570312 289.101562 398.355469 " fill-opacity="1" fill-rule="nonzero"/><path fill="#f3a4bf" d="M 100.464844 405.421875 C 99.824219 405.097656 99.21875 404.714844 98.648438 404.289062 C 98.144531 403.890625 97.667969 403.460938 97.230469 402.996094 C 96.832031 402.5625 96.050781 402.5625 95.65625 402.996094 C 95.234375 403.449219 95.234375 404.109375 95.65625 404.570312 C 96.703125 405.695312 97.964844 406.652344 99.339844 407.34375 C 99.859375 407.605469 100.570312 407.5 100.863281 406.945312 C 101.132812 406.4375 101.019531 405.703125 100.464844 405.421875 " fill-opacity="1" fill-rule="nonzero"/><path fill="#f3a4bf" d="M 100.183594 392.953125 L 99.886719 392.992188 C 99.695312 393.042969 99.535156 393.136719 99.394531 393.277344 L 99.300781 393.351562 C 98.515625 393.953125 97.675781 394.472656 96.789062 394.910156 C 96.550781 395.027344 96.347656 395.324219 96.277344 395.574219 C 96.203125 395.839844 96.238281 396.195312 96.390625 396.433594 C 96.542969 396.671875 96.773438 396.878906 97.054688 396.941406 C 97.359375 397.011719 97.632812 396.96875 97.914062 396.832031 C 99.011719 396.292969 100.019531 395.621094 100.96875 394.851562 C 101.179688 394.683594 101.296875 394.320312 101.296875 394.0625 C 101.296875 393.792969 101.175781 393.464844 100.96875 393.277344 C 100.757812 393.082031 100.480469 392.9375 100.183594 392.953125 " fill-opacity="1" fill-rule="nonzero"/><path fill="#822944" d="M 103.957031 393.976562 C 103.425781 396.230469 103.253906 398.5625 103.535156 400.859375 C 103.804688 403.035156 104.273438 405.550781 105.570312 407.375 C 106.351562 408.472656 107.414062 409.34375 108.789062 409.527344 C 110.046875 409.695312 111.289062 409.378906 112.316406 408.613281 C 114.214844 407.195312 115.308594 404.996094 115.953125 402.757812 C 116.632812 400.394531 116.789062 397.894531 116.925781 395.449219 C 116.992188 394.28125 115.855469 393.167969 114.699219 393.222656 C 113.433594 393.277344 112.542969 394.203125 112.472656 395.449219 C 112.410156 396.527344 112.34375 397.609375 112.226562 398.683594 C 112.210938 398.828125 112.195312 398.972656 112.175781 399.113281 C 112.207031 398.878906 112.203125 398.898438 112.167969 399.164062 C 112.121094 399.449219 112.078125 399.734375 112.023438 400.015625 C 111.929688 400.503906 111.820312 400.992188 111.6875 401.472656 C 111.609375 401.746094 111.527344 402.015625 111.433594 402.285156 C 111.40625 402.359375 111.101562 403.125 111.273438 402.738281 C 111.074219 403.191406 110.84375 403.628906 110.582031 404.050781 L 110.355469 404.394531 C 110.511719 404.214844 110.503906 404.21875 110.339844 404.417969 C 110.15625 404.617188 109.972656 404.8125 109.769531 404.988281 C 110.109375 404.699219 109.507812 405.132812 109.40625 405.183594 C 109.648438 405.082031 109.652344 405.074219 109.410156 405.152344 C 109.671875 405.136719 109.71875 405.128906 109.546875 405.140625 L 109.269531 405.136719 C 109.546875 405.171875 109.558594 405.160156 109.316406 405.097656 C 109.574219 405.207031 109.59375 405.199219 109.375 405.082031 C 109.589844 405.253906 109.605469 405.257812 109.417969 405.089844 C 109.253906 404.90625 109.253906 404.914062 109.414062 405.125 L 109.210938 404.816406 C 109.097656 404.628906 109.007812 404.429688 108.90625 404.238281 C 108.835938 404.089844 108.847656 404.125 108.945312 404.34375 C 108.894531 404.214844 108.84375 404.085938 108.796875 403.957031 C 108.695312 403.664062 108.597656 403.375 108.507812 403.082031 C 108.34375 402.53125 108.207031 401.96875 108.09375 401.40625 C 108.042969 401.140625 107.996094 400.878906 107.957031 400.609375 C 108.011719 400.988281 107.914062 400.136719 107.90625 400.058594 C 107.859375 399.484375 107.84375 398.90625 107.851562 398.332031 C 107.875 396.980469 107.949219 396.457031 108.253906 395.164062 C 108.519531 394.03125 107.902344 392.695312 106.695312 392.425781 C 105.558594 392.164062 104.242188 392.765625 103.957031 393.976562 " fill-opacity="1" fill-rule="nonzero"/><path fill="#822944" d="M 270.984375 393.976562 C 270.453125 396.230469 270.277344 398.5625 270.5625 400.859375 C 270.832031 403.035156 271.296875 405.550781 272.59375 407.375 C 273.375 408.472656 274.441406 409.34375 275.8125 409.527344 C 277.074219 409.695312 278.3125 409.378906 279.339844 408.613281 C 281.238281 407.195312 282.335938 404.996094 282.976562 402.757812 C 283.65625 400.394531 283.8125 397.894531 283.953125 395.449219 C 284.019531 394.28125 282.878906 393.167969 281.722656 393.222656 C 280.460938 393.277344 279.566406 394.203125 279.5 395.449219 C 279.4375 396.527344 279.371094 397.609375 279.25 398.683594 C 279.234375 398.828125 279.21875 398.972656 279.199219 399.113281 C 279.234375 398.878906 279.230469 398.898438 279.191406 399.164062 C 279.148438 399.449219 279.101562 399.734375 279.046875 400.015625 C 278.957031 400.503906 278.847656 400.992188 278.710938 401.472656 C 278.632812 401.746094 278.550781 402.015625 278.460938 402.285156 C 278.433594 402.359375 278.128906 403.125 278.296875 402.738281 C 278.097656 403.191406 277.871094 403.628906 277.605469 404.050781 L 277.382812 404.394531 C 277.535156 404.214844 277.527344 404.21875 277.363281 404.417969 C 277.179688 404.617188 277 404.8125 276.796875 404.988281 C 277.132812 404.699219 276.53125 405.132812 276.433594 405.183594 C 276.675781 405.082031 276.675781 405.074219 276.4375 405.152344 C 276.695312 405.136719 276.742188 405.128906 276.574219 405.140625 L 276.296875 405.136719 C 276.570312 405.171875 276.585938 405.160156 276.339844 405.097656 C 276.601562 405.207031 276.621094 405.199219 276.402344 405.082031 C 276.617188 405.253906 276.628906 405.257812 276.445312 405.089844 C 276.28125 404.90625 276.28125 404.914062 276.441406 405.125 L 276.238281 404.816406 C 276.121094 404.628906 276.035156 404.429688 275.929688 404.238281 C 275.863281 404.089844 275.875 404.125 275.96875 404.34375 C 275.917969 404.214844 275.871094 404.085938 275.824219 403.957031 C 275.71875 403.664062 275.625 403.375 275.535156 403.082031 C 275.367188 402.53125 275.230469 401.96875 275.121094 401.40625 C 275.070312 401.140625 275.019531 400.878906 274.984375 400.609375 C 275.039062 400.988281 274.941406 400.136719 274.933594 400.058594 C 274.886719 399.484375 274.867188 398.90625 274.878906 398.332031 C 274.902344 396.980469 274.976562 396.457031 275.277344 395.164062 C 275.546875 394.03125 274.925781 392.695312 273.722656 392.425781 C 272.582031 392.164062 271.265625 392.765625 270.984375 393.976562 " fill-opacity="1" fill-rule="nonzero"/><path fill="#822944" d="M 190.332031 383.910156 C 189.132812 389.832031 187.585938 395.703125 185.527344 401.386719 C 183.636719 406.597656 180.703125 411.378906 178.984375 416.648438 C 177.601562 420.890625 176.398438 427.382812 181.382812 429.644531 C 186.570312 432 192.613281 432.855469 198.269531 432.761719 C 201.132812 432.714844 201.140625 428.257812 198.269531 428.308594 C 193.347656 428.390625 188.113281 427.726562 183.554688 425.757812 C 182.496094 425.300781 182.335938 424.96875 182.289062 423.800781 C 182.246094 422.683594 182.347656 421.566406 182.574219 420.476562 C 183.046875 418.140625 183.925781 415.917969 184.914062 413.757812 C 186.996094 409.21875 189.132812 404.777344 190.703125 400.019531 C 192.320312 395.128906 193.609375 390.140625 194.628906 385.09375 C 195.195312 382.296875 190.898438 381.097656 190.332031 383.910156 " fill-opacity="1" fill-rule="nonzero"/><path fill="#f1d3d5" d="M 358.625 399.929688 C 351.226562 398.605469 343.921875 396.734375 336.792969 394.359375 C 304.0625 383.492188 275.300781 362.703125 253.664062 335.980469 C 234.714844 312.578125 220.976562 285.390625 212.050781 256.703125 C 206.972656 267.128906 200.898438 277.042969 193.890625 286.324219 C 176.351562 309.546875 154.089844 328.613281 129.46875 343.996094 C 116.847656 351.882812 103.628906 358.816406 90.101562 364.992188 C 79.363281 369.90625 68.375 374.746094 56.941406 377.804688 C 59.433594 343.726562 68.480469 309.574219 88.570312 281.585938 C 89.0625 280.890625 89.582031 280.195312 90.085938 279.511719 C 90.902344 278.382812 91.75 277.300781 92.609375 276.210938 C 94.527344 273.839844 96.5 271.550781 98.550781 269.371094 C 144.867188 219.894531 228.460938 218.425781 284 250.480469 C 304.226562 262.152344 319.714844 278.796875 331.226562 298.113281 C 345.820312 322.585938 354.480469 351.300781 357.523438 379.585938 C 358.238281 386.339844 358.578125 393.125 358.625 399.929688 " fill-opacity="1" fill-rule="nonzero"/></svg>